<svg xmlns="http://www.w3.org/2000/svg" xmlns:xlink="http://www.w3.org/1999/xlink" version="1.1" x="0px" y="0px" viewBox="0 0 64 80" style="enable-background:new 0 0 64 64;" xml:space="preserve"><path d="M13.01,21.62c0,1.2,0.97,2.17,2.17,2.17c1.2,0,2.17-0.97,2.17-2.17s-0.97-2.17-2.17-2.17  C13.98,19.45,13.01,20.42,13.01,21.62z"/><path d="M34.61,11.57c0-1.2-0.97-2.17-2.17-2.17c-1.19,0-2.17,0.97-2.17,2.17s0.97,2.17,2.17,2.17  C33.64,13.74,34.61,12.77,34.61,11.57z"/><path d="M20.33,45.22c-1.2,0-2.17,0.97-2.17,2.17c0,1.2,0.97,2.17,2.17,2.17c1.19,0,2.17-0.97,2.17-2.17  C22.5,46.19,21.53,45.22,20.33,45.22z"/><path d="M14.14,36.99c-1.2,0-2.17,0.97-2.17,2.17c0,1.2,0.97,2.17,2.17,2.17c1.19,0,2.17-0.97,2.17-2.17  C16.31,37.96,15.34,36.99,14.14,36.99z"/><path d="M11.17,44.07c-1.2,0-2.17,0.97-2.17,2.17c0,1.2,0.97,2.17,2.17,2.17c1.19,0,2.17-0.97,2.17-2.17  C13.33,45.04,12.36,44.07,11.17,44.07z"/><path d="M52.33,17.72c0-1.2-0.97-2.17-2.17-2.17c-1.2,0-2.17,0.97-2.17,2.17s0.97,2.17,2.17,2.17  C51.36,19.89,52.33,18.92,52.33,17.72z"/><path d="M44.83,15.61L40,18.03v6.05l3.44,1.72l1.39,0.69l2.42-1.2l2.42-1.21v-3.24C48.16,20.6,47,19.3,47,17.72  c0-0.33,0.07-0.64,0.16-0.94L44.83,15.61z"/><polygon points="34.67,27.36 34.67,33.41 39.5,35.83 42.24,34.46 44.33,33.41 44.33,27.36 43.44,26.92 39.5,24.95 "/><polygon points="29.33,24.08 34.17,26.5 39,24.08 39,18.03 34.17,15.61 29.33,18.03 "/><polygon points="24,27.36 24,33.41 28.83,35.83 33.67,33.41 33.67,27.36 28.83,24.95 "/><polygon points="18.67,18.03 18.67,24.08 23.5,26.5 28.33,24.08 28.33,18.03 23.5,15.61 "/><polygon points="23,33.41 23,27.36 18.17,24.95 13.33,27.36 13.33,33.41 18.17,35.83 "/><polygon points="28.33,36.7 23.5,34.28 18.67,36.7 18.67,42.75 23.5,45.16 28.33,42.75 "/><polygon points="24,46.03 24,52.08 28.83,54.5 33.67,52.08 33.67,46.03 28.83,43.61 "/><polygon points="39,42.74 39,36.7 34.17,34.28 29.33,36.7 29.33,42.75 34.17,45.16 35.12,44.69 "/><path d="M44.33,49.31v-3.28l-2.19-1.1l-2.64-1.32l-3.44,1.72l-1.4,0.7v6.05l4.83,2.41l2.32-1.16c-0.09-0.29-0.15-0.59-0.15-0.91  C41.67,50.86,42.82,49.56,44.33,49.31z"/><path d="M44.83,50.26c-1.2,0-2.17,0.97-2.17,2.17c0,0.33,0.08,0.64,0.21,0.92c0,0,0,0,0.01,0.01c0,0,0,0,0,0.01  c0.35,0.72,1.09,1.23,1.95,1.23c1.2,0,2.17-0.97,2.17-2.17C47,51.23,46.03,50.26,44.83,50.26z"/><path d="M49.67,39.93V36.7l-4.84-2.42l-1.39,0.7L40,36.7v6.04l2.19,1.1l2.64,1.32l2.33-1.17c-0.09-0.3-0.16-0.61-0.16-0.94  C47,41.48,48.16,40.18,49.67,39.93z"/><path d="M50.17,40.88c-1.2,0-2.17,0.97-2.17,2.17s0.97,2.17,2.17,2.17c1.19,0,2.17-0.97,2.17-2.17S51.36,40.88,50.17,40.88z"/><polygon points="47.72,26.17 45.33,27.36 45.33,33.41 50.17,35.83 55,33.41 55,27.36 50.17,24.95 "/><text x="0" y="79" fill="#000000" font-size="5px" font-weight="bold" font-family="'Helvetica Neue', Helvetica, Arial-Unicode, Arial, Sans-serif">Created by projecthayat</text><text x="0" y="84" fill="#000000" font-size="5px" font-weight="bold" font-family="'Helvetica Neue', Helvetica, Arial-Unicode, Arial, Sans-serif">from the Noun Project</text></svg>